<svg xmlns="http://www.w3.org/2000/svg" width="78.54" height="45.886" viewBox="0 0 78.54 45.886">
  <g id="logo-migo" transform="translate(-98.9 -265.66)">
    <path id="Caminho_1" data-name="Caminho 1" d="M137.295,311.546a96.145,96.145,0,0,1-15.287-1.21c-13.594-2.194-21.832-6.518-22.177-6.7l-.931-.5V274.066l.931-.5c.344-.183,8.582-4.507,22.177-6.7a100.662,100.662,0,0,1,54.343,6.626l1.09.447v29.319l-1.09.447A102.5,102.5,0,0,1,137.295,311.546Zm-34.883-10.561c5.518,2.542,34.876,14.483,71.516-.083V276.306c-36.634-14.564-65.992-2.629-71.516-.083Zm73.272,1.1h0Z" transform="translate(0 0)" fill="#fff"/>
    <g id="Grupo_10" data-name="Grupo 10" transform="translate(107.166 281.065)">
      <path id="Caminho_2" data-name="Caminho 2" d="M183.33,425.96h4.246l3.459,5.613,3.459-5.613h4.246v14.5h-4v-8.326l-3.708,5.675h-.082l-3.686-5.634v8.285h-3.935v-14.5Z" transform="translate(-183.33 -425.67)" fill="#fff"/>
      <path id="Caminho_3" data-name="Caminho 3" d="M388.94,425.96h4.039v14.5H388.94Z" transform="translate(-368.81 -425.67)" fill="#fff"/>
      <path id="Caminho_4" data-name="Caminho 4" d="M473.35,430.58v-.041A7.527,7.527,0,0,1,481.158,423a8.457,8.457,0,0,1,5.882,2.113l-2.361,2.837a5.112,5.112,0,0,0-3.5-1.367,3.808,3.808,0,0,0-3.707,3.977v.041a3.829,3.829,0,0,0,3.935,4.018,4.1,4.1,0,0,0,2.319-.6v-1.76h-2.858v-2.941h6.669v6.523a9.812,9.812,0,0,1-6.3,2.236C476.726,438.078,473.35,434.971,473.35,430.58Z" transform="translate(-444.955 -423)" fill="#fff"/>
      <path id="Caminho_5" data-name="Caminho 5" d="M657.17,430.58v-.041a7.814,7.814,0,0,1,15.616-.041v.041a7.814,7.814,0,0,1-15.616.041Zm11.515,0v-.041a3.767,3.767,0,0,0-3.728-3.914,3.7,3.7,0,0,0-3.666,3.873v.041A3.763,3.763,0,0,0,665,434.453,3.7,3.7,0,0,0,668.685,430.58Z" transform="translate(-610.778 -423)" fill="#fff"/>
    </g>
  </g>
</svg>
